# xmcd
#
# Track frame offsets:
#	150
#	13061
#	26703
#	38361
#	51523
#	63247
#	76333
#	88587
#	100211
#	112245
#	124275
#	136305
#	148537
#	160248
#	172641
#	184842
#	197848
#	210234
#	223433
#	235404
#	246797
#	258673
#	269903
#	281939
#
# Disc length: 3915 seconds
#
# Revision: 1
# Processed by: cddbd v1.4PL0 Copyright (c) Steve Scherf et al.
# Submitted via: audiograbber 1.82.02
#
DISCID=6f0f4918
DTITLE=Zeb Turner - Tennessee Boogie and Jersey Rock
DYEAR=1900
DGENRE=
TTITLE0=Tennessee Boogie
TTITLE1=A Drunkard's Confession
TTITLE2=How Can I?
TTITLE3=Huckleberry Boogie
TTITLE4=Never Been So Lonesome
TTITLE5=Why Don't You Haul Off And Get Some Religion
TTITLE6=Dolly Dimple Dance
TTITLE7=Boogie Woogie Lou
TTITLE8=I Could Lose These Blues (If You'd Bring My Baby Back)
TTITLE9=You're Gonna Be Lonesome, Downhearted And Blue
TTITLE10=Rag Man Boogie
TTITLE11=Hard-hearted You And Chicken-hearted Me
TTITLE12=I'm Tying Up The Blues (With A Big Blue Ribbon)
TTITLE13=Chew Tobacco Rag
TTITLE14=No More Nothin' (But Gettin' You Off My Mind)
TTITLE15=I Get A Lot Of Time For A Lot Of Things
TTITLE16=Back, Back, Back To Baltimore
TTITLE17=I Got Loaded
TTITLE18=Travelling Boogie
TTITLE19=Oh She's Gone, Gone, Gone
TTITLE20=Crazy Heart
TTITLE21=You're My Cutie Pie
TTITLE22=I'm In Love With Someone (Who Can't Belong To Me)
TTITLE23=Jersey Rock
EXTD=
EXTT0=
EXTT1=
EXTT2=
EXTT3=
EXTT4=
EXTT5=
EXTT6=
EXTT7=
EXTT8=
EXTT9=
EXTT10=
EXTT11=
EXTT12=
EXTT13=
EXTT14=
EXTT15=
EXTT16=
EXTT17=
EXTT18=
EXTT19=
EXTT20=
EXTT21=
EXTT22=
EXTT23=
PLAYORDER=
